<?xml version="1.0" standalone="no"?><svg xmlns="http://www.w3.org/2000/svg" viewBox="0 0 1440 320"><path fill="#fff" fill-opacity="1" d="M0,128L18.5,117.3C36.9,107,74,85,111,74.7C147.7,64,185,64,222,85.3C258.5,107,295,149,332,149.3C369.2,149,406,107,443,122.7C480,139,517,213,554,213.3C590.8,213,628,139,665,128C701.5,117,738,171,775,176C812.3,181,849,139,886,138.7C923.1,139,960,181,997,165.3C1033.8,149,1071,75,1108,42.7C1144.6,11,1182,21,1218,48C1255.4,75,1292,117,1329,154.7C1366.2,192,1403,224,1422,240L1440,256L1440,0L1421.5,0C1403.1,0,1366,0,1329,0C1292.3,0,1255,0,1218,0C1181.5,0,1145,0,1108,0C1070.8,0,1034,0,997,0C960,0,923,0,886,0C849.2,0,812,0,775,0C738.5,0,702,0,665,0C627.7,0,591,0,554,0C516.9,0,480,0,443,0C406.2,0,369,0,332,0C295.4,0,258,0,222,0C184.6,0,148,0,111,0C73.8,0,37,0,18,0L0,0Z"></path></svg>