<?xml version="1.0" standalone="no"?><svg xmlns="http://www.w3.org/2000/svg" viewBox="0 0 1440 320"><path fill="#fff" fill-opacity="1" d="M0,96L30,133.3C60,171,120,245,180,266.7C240,288,300,256,360,213.3C420,171,480,117,540,133.3C600,149,660,235,720,261.3C780,288,840,256,900,229.3C960,203,1020,181,1080,181.3C1140,181,1200,203,1260,192C1320,181,1380,139,1410,117.3L1440,96L1440,0L1410,0C1380,0,1320,0,1260,0C1200,0,1140,0,1080,0C1020,0,960,0,900,0C840,0,780,0,720,0C660,0,600,0,540,0C480,0,420,0,360,0C300,0,240,0,180,0C120,0,60,0,30,0L0,0Z"></path></svg>