<?xml version="1.0" standalone="no"?><svg xmlns="http://www.w3.org/2000/svg" viewBox="0 0 1440 320"><path fill="#fff" fill-opacity="1" d="M0,32L7.3,58.7C14.5,85,29,139,44,165.3C58.2,192,73,192,87,170.7C101.8,149,116,107,131,106.7C145.5,107,160,149,175,149.3C189.1,149,204,107,218,112C232.7,117,247,171,262,165.3C276.4,160,291,96,305,106.7C320,117,335,203,349,224C363.6,245,378,203,393,192C407.3,181,422,203,436,224C450.9,245,465,267,480,272C494.5,277,509,267,524,224C538.2,181,553,107,567,90.7C581.8,75,596,117,611,133.3C625.5,149,640,139,655,128C669.1,117,684,107,698,128C712.7,149,727,203,742,208C756.4,213,771,171,785,138.7C800,107,815,85,829,96C843.6,107,858,149,873,144C887.3,139,902,85,916,80C930.9,75,945,117,960,154.7C974.5,192,989,224,1004,229.3C1018.2,235,1033,213,1047,208C1061.8,203,1076,213,1091,186.7C1105.5,160,1120,96,1135,74.7C1149.1,53,1164,75,1178,90.7C1192.7,107,1207,117,1222,122.7C1236.4,128,1251,128,1265,154.7C1280,181,1295,235,1309,245.3C1323.6,256,1338,224,1353,181.3C1367.3,139,1382,85,1396,58.7C1410.9,32,1425,32,1433,32L1440,32L1440,0L1432.7,0C1425.5,0,1411,0,1396,0C1381.8,0,1367,0,1353,0C1338.2,0,1324,0,1309,0C1294.5,0,1280,0,1265,0C1250.9,0,1236,0,1222,0C1207.3,0,1193,0,1178,0C1163.6,0,1149,0,1135,0C1120,0,1105,0,1091,0C1076.4,0,1062,0,1047,0C1032.7,0,1018,0,1004,0C989.1,0,975,0,960,0C945.5,0,931,0,916,0C901.8,0,887,0,873,0C858.2,0,844,0,829,0C814.5,0,800,0,785,0C770.9,0,756,0,742,0C727.3,0,713,0,698,0C683.6,0,669,0,655,0C640,0,625,0,611,0C596.4,0,582,0,567,0C552.7,0,538,0,524,0C509.1,0,495,0,480,0C465.5,0,451,0,436,0C421.8,0,407,0,393,0C378.2,0,364,0,349,0C334.5,0,320,0,305,0C290.9,0,276,0,262,0C247.3,0,233,0,218,0C203.6,0,189,0,175,0C160,0,145,0,131,0C116.4,0,102,0,87,0C72.7,0,58,0,44,0C29.1,0,15,0,7,0L0,0Z"></path></svg>