<?xml version="1.0" standalone="no"?><svg xmlns="http://www.w3.org/2000/svg" viewBox="0 0 1440 320"><path fill="#ffffff" fill-opacity="1" d="M0,256L6.2,261.3C12.3,267,25,277,37,256C49.2,235,62,181,74,160C86.2,139,98,149,111,176C123.1,203,135,245,148,229.3C160,213,172,139,185,112C196.9,85,209,107,222,112C233.8,117,246,107,258,90.7C270.8,75,283,53,295,80C307.7,107,320,181,332,202.7C344.6,224,357,192,369,154.7C381.5,117,394,75,406,96C418.5,117,431,203,443,224C455.4,245,468,203,480,176C492.3,149,505,139,517,128C529.2,117,542,107,554,106.7C566.2,107,578,117,591,149.3C603.1,181,615,235,628,250.7C640,267,652,245,665,234.7C676.9,224,689,224,702,197.3C713.8,171,726,117,738,101.3C750.8,85,763,107,775,112C787.7,117,800,107,812,85.3C824.6,64,837,32,849,42.7C861.5,53,874,107,886,138.7C898.5,171,911,181,923,197.3C935.4,213,948,235,960,250.7C972.3,267,985,277,997,277.3C1009.2,277,1022,267,1034,256C1046.2,245,1058,235,1071,234.7C1083.1,235,1095,245,1108,224C1120,203,1132,149,1145,112C1156.9,75,1169,53,1182,74.7C1193.8,96,1206,160,1218,192C1230.8,224,1243,224,1255,213.3C1267.7,203,1280,181,1292,144C1304.6,107,1317,53,1329,48C1341.5,43,1354,85,1366,101.3C1378.5,117,1391,107,1403,106.7C1415.4,107,1428,117,1434,122.7L1440,128L1440,0L1433.8,0C1427.7,0,1415,0,1403,0C1390.8,0,1378,0,1366,0C1353.8,0,1342,0,1329,0C1316.9,0,1305,0,1292,0C1280,0,1268,0,1255,0C1243.1,0,1231,0,1218,0C1206.2,0,1194,0,1182,0C1169.2,0,1157,0,1145,0C1132.3,0,1120,0,1108,0C1095.4,0,1083,0,1071,0C1058.5,0,1046,0,1034,0C1021.5,0,1009,0,997,0C984.6,0,972,0,960,0C947.7,0,935,0,923,0C910.8,0,898,0,886,0C873.8,0,862,0,849,0C836.9,0,825,0,812,0C800,0,788,0,775,0C763.1,0,751,0,738,0C726.2,0,714,0,702,0C689.2,0,677,0,665,0C652.3,0,640,0,628,0C615.4,0,603,0,591,0C578.5,0,566,0,554,0C541.5,0,529,0,517,0C504.6,0,492,0,480,0C467.7,0,455,0,443,0C430.8,0,418,0,406,0C393.8,0,382,0,369,0C356.9,0,345,0,332,0C320,0,308,0,295,0C283.1,0,271,0,258,0C246.2,0,234,0,222,0C209.2,0,197,0,185,0C172.3,0,160,0,148,0C135.4,0,123,0,111,0C98.5,0,86,0,74,0C61.5,0,49,0,37,0C24.6,0,12,0,6,0L0,0Z"></path></svg>