<?xml version="1.0" standalone="no"?><svg xmlns="http://www.w3.org/2000/svg" viewBox="0 0 1440 320"><path fill="#fff" fill-opacity="1" d="M0,64L34.3,85.3C68.6,107,137,149,206,181.3C274.3,213,343,235,411,213.3C480,192,549,128,617,117.3C685.7,107,754,149,823,186.7C891.4,224,960,256,1029,272C1097.1,288,1166,288,1234,250.7C1302.9,213,1371,139,1406,101.3L1440,64L1440,0L1405.7,0C1371.4,0,1303,0,1234,0C1165.7,0,1097,0,1029,0C960,0,891,0,823,0C754.3,0,686,0,617,0C548.6,0,480,0,411,0C342.9,0,274,0,206,0C137.1,0,69,0,34,0L0,0Z"></path></svg>